<?xml version="1.0"?>
<svg version="1.1" xmlns="http://www.w3.org/2000/svg" width="400px" height="200px" style="border: dashed 2px #aaa"><path fill="#000000" d="M70.78,94.54l5.46,0c6.76,0,11.44,2.86,11.44,8.996c0,4.524-2.132,7.28-6.24,8.58c4.888,1.404,7.436,4.316,7.436,8.32c0,7.644-5.096,10.764-13.52,10.764l-16.536,0l0-4.42l3.9-1.56l0-24.44l-3.9-1.56l0-4.42z M70.78,109.516l3.016,0c3.796,0,5.824-1.612,5.824-4.836c0-2.704-1.924-3.9-4.42-3.9l-4.42,0l0,8.736z M70.78,124.96l4.316,0c3.64,0,5.564-1.664,5.564-4.524c0-3.796-2.184-5.46-6.864-5.46l-3.016,0l0,9.984z M95.09052,107.54l0-4.16l13.884-0.26l0,4.42l-2.912,0.52l4.628,14.56l4.42-14.404l-3.016-0.676l0-4.16l13.988-0.26l0,4.42l-3.224,0.676l-7.644,21.32c-2.496,6.864-5.876,14.144-14.144,14.144c-1.768,0-5.044-0.416-5.044-0.416l0.728-5.564l3.38,0c4.16,0,6.084-4.42,6.968-6.448l-9.256-22.88z M149.97704,124.544l1.872,3.952c-2.548,1.872-5.46,3.224-8.84,3.224c-5.98,0-7.696-4.16-7.696-10.14l0-11.96l-4.836,0l0-5.044l4.836-0.676l0-7.176l7.8-1.404l0,8.58l7.28,0l0,5.72l-7.28,0l0,11.44c0,3.328,0.572,4.68,2.756,4.68c1.404,0,3.432-0.832,4.108-1.196z M183.17956,118.876l-17.264,0c0.312,4.16,2.704,6.604,6.292,6.604c4.316,0,8.736-2.444,8.736-2.444l2.236,4.316s-5.2,4.368-11.856,4.368c-8.944,0-13.52-5.2-13.52-14.04c0-9.1,5.148-15.08,13.884-15.08c7.748,0,11.804,4.784,11.804,12.22c0,1.976-0.312,3.9-0.312,4.056z M166.01956,114.04l9.412,0c0-2.964-1.248-5.2-4.264-5.2c-2.912,0-4.732,2.132-5.148,5.2z M202.70608,94.54l5.46,0c6.76,0,11.44,2.86,11.44,8.996c0,4.524-2.132,7.28-6.24,8.58c4.888,1.404,7.436,4.316,7.436,8.32c0,7.644-5.096,10.764-13.52,10.764l-16.536,0l0-4.42l3.9-1.56l0-24.44l-3.9-1.56l0-4.42z M202.70608,109.516l3.016,0c3.796,0,5.824-1.612,5.824-4.836c0-2.704-1.924-3.9-4.42-3.9l-4.42,0l0,8.736z M202.70608,124.96l4.316,0c3.64,0,5.564-1.664,5.564-4.524c0-3.796-2.184-5.46-6.864-5.46l-3.016,0l0,9.984z M246.3086,131.2l-0.936-3.38s-4.004,3.9-8.424,3.9c-5.044,0-8.112-2.964-8.112-8.164c0-6.136,4.628-8.58,12.532-8.58l3.64,0l0-2.86c0-2.652-1.404-3.796-4.004-3.796c-2.652,0-4.576,0.78-4.576,0.78l-0.78,3.276l-4.68,0l-0.364-7.696s6.292-2.08,11.284-2.08c7.904,0,10.92,2.756,10.92,10.296l0,12.844l3.9,0.936l0,4.16z M245.0086,119.396l-2.964,0c-4.056,0-5.668,1.04-5.668,3.38c0,1.976,1.092,3.12,3.068,3.12c2.756,0,5.564-3.016,5.564-3.016l0-3.484z M286.16712,107.956l-13,17.524l7.592,0l0.884-4.42l4.68,0l0,10.14l-22.62,0l0-4.784l13.208-17.576l-7.124,0l-0.78,3.796l-4.68,0l0-9.516l21.84,0l0,4.836z M311.04964,131.2l-0.936-3.38s-4.004,3.9-8.424,3.9c-5.044,0-8.112-2.964-8.112-8.164c0-6.136,4.628-8.58,12.532-8.58l3.64,0l0-2.86c0-2.652-1.404-3.796-4.004-3.796c-2.652,0-4.576,0.78-4.576,0.78l-0.78,3.276l-4.68,0l-0.364-7.696s6.292-2.08,11.284-2.08c7.904,0,10.92,2.756,10.92,10.296l0,12.844l3.9,0.936l0,4.16z M309.74964,119.396l-2.964,0c-4.056,0-5.668,1.04-5.668,3.38c0,1.976,1.092,3.12,3.068,3.12c2.756,0,5.564-3.016,5.564-3.016l0-3.484z M345.91616,131.2l-0.936-3.38s-4.004,3.9-8.424,3.9c-5.044,0-8.112-2.964-8.112-8.164c0-6.136,4.628-8.58,12.532-8.58l3.64,0l0-2.86c0-2.652-1.404-3.796-4.004-3.796c-2.652,0-4.576,0.78-4.576,0.78l-0.78,3.276l-4.68,0l-0.364-7.696s6.292-2.08,11.284-2.08c7.904,0,10.92,2.756,10.92,10.296l0,12.844l3.9,0.936l0,4.16z M344.61616,119.396l-2.964,0c-4.056,0-5.668,1.04-5.668,3.38c0,1.976,1.092,3.12,3.068,3.12c2.756,0,5.564-3.016,5.564-3.016l0-3.484z M373.97068,103.12l0.468,3.588s3.744-4.108,7.228-4.108c2.86,0,4.836,0.936,4.836,0.936l-0.416,9.984l-4.68,0l-0.78-4.42c-3.016,0-5.616,2.912-5.616,2.912l0,13.728l5.2,1.3l0,4.16l-17.16,0l0-4.16l4.16-1.3l0-16.9l-4.16-1.3l0-4.16z"/><path fill="#" d=""/></svg>
